<?xml version="1.0" encoding="UTF-8"?>
<svg id="Layer_1" data-name="Layer 1" xmlns="http://www.w3.org/2000/svg" viewBox="0 0 487.36 487.36">
  <defs>
    <style>
      .cls-1 {
        fill: #fff;
      }

      .cls-2 {
        opacity: .63;
      }

      .cls-3 {
        fill: none;
        stroke: #fff;
        stroke-linecap: round;
        stroke-miterlimit: 10;
        stroke-width: 2px;
      }
    </style>
  </defs>
  <g class="cls-2">
    <g>
      <path class="cls-3" d="m152.94,135.72l8.57-3.75c2.1-.92,4.35-1.86,6.62-1.5,2.55.41,4.91,1.61,6.69,3.48"/>
      <path class="cls-3" d="m152.82,135.43c2.56-4.61,7.27-7.53,11.79-10.24,7.41-4.43,15.06-8.9,23.58-10.28,8.52-1.38,18.2.98,23.24,7.99,4.33,6.04,4.41,14.24,2.51,21.43-1.9,7.18-5.54,13.77-8.18,20.72-2.78,7.29-4.47,15.14-3.67,22.91.81,7.76,3.6,19.14,9.77,23.92"/>
      <path class="cls-3" d="m153.44,135.94c2.63-.1,5.38.17,7.66,1.49s3.99,3.88,3.67,6.5c-.21,1.76-1.26,3.28-2.03,4.88-1.02,2.12-1.56,4.47-1.57,6.83,0,1.39.35,2.95,1.57,3.61,1.9,1.04,4.81.14,5.82-.92"/>
      <path class="cls-3" d="m168.57,158.32c1.18,1.59,4,2.92,5.96,2.67s3.75-1.61,4.51-3.44c.83-1.98.48-4.22.41-6.36-.06-2.02.37-5.54,1.89-6.98.15-.14.38-.13.53,0,1.15,1.04,4.22,2.29,5.51,2.41,1.39.12,2.81-.08,4.14-.52,1.56-.52,4.5-1.5,7.53-4.85"/>
      <path class="cls-3" d="m183.55,129.61c3.82.35,7.72-.1,11.35-1.32"/>
      <path class="cls-3" d="m187.04,129.45c.29-.95,1.16-1.7,2.15-1.86s2.04.29,2.61,1.11"/>
      <path class="cls-3" d="m180.74,116.51c-1.2-1.27-1.93-2.9-2.53-4.54-.48-1.32-.9-2.71-.71-4.1.13-.94.53-1.81.95-2.65,2.39-4.72,6.08-9.12,10.23-12.41.07-.06.19-.02.22.07.36.97,1.22,2.73,2.77,3.36,3.34,1.36,5.74-.34,8.11-2.98.11-.12.29-.07.32.09.78,3.43,4.13,5.91,7.6,6.67s7.42-.29,10.45-2.37,5.29-5.14,7.12-8.25c.04-.08.16-.05.17.04.58,4.28,1.16,8.5-.21,12.6-1.35,4.05-4.46,7.33-8.01,9.69-3.56,2.36-6.61,4.88-10.6,6.4"/>
      <path class="cls-3" d="m257.96,145.32c-2.37-5.46-2.79-11.62-2.06-17.53.73-5.91,2.56-11.62,4.58-17.23,1.42-3.96,2.37-8.06,3.79-12.03,4.44-12.41,5.82-25.84-1.79-33.14,1.14,20.68-8.02,42.49-21.39,57.58-2.91,3.29-6.1,6.3-9.02,9.58-3.32,3.74-6.3,7.84-8.66,12.34-3.22,6.13-5.22,12.89-6.94,19.67-3.6,14.2-6.9,31.27-4.61,46.54"/>
      <path class="cls-3" d="m310.99,142.86c-22.29,2.04-43.54,13.68-57.26,31.38-5.16,6.65-9.25,14.05-13.73,21.17-4.48,7.13-9.43,14.09-15.93,19.44-6.5,5.35-20.63,11.96-29.03,11.53"/>
      <path class="cls-3" d="m312.1,142.94c-7.57-2.45-16.51-7.67-18.14-16.23-1.66-8.7,3.89-19.76,7.13-27.9,3.24-8.14,7.4-16.42,8.9-25.18,1.32-7.7-1.05-13.78-2.93-17.76-5.03,16.66-9.04,33.3-15.65,49.4-4.62,11.23-12.01,22.65-21.46,30.28-3.65,2.95-7.79,6.77-11.42,9.74-8.34,6.81-13.5,15.18-17.8,25.06-4.3,9.87-6.84,21.76-13.22,30.44-6.38,8.68-17.24,14.12-28.01,14.3"/>
      <path class="cls-3" d="m311.91,142.78c.73,3.11-.72,6.28-2.25,9.08-2.6,4.76-5.55,9.32-7.84,14.23-2.3,4.91-3.04,11.99-2.8,17.4"/>
      <path class="cls-3" d="m161.15,160.17c-3.85,5.56-7.71,11.12-11.56,16.69-5.59,8.06-11.22,16.2-15.06,25.23-3.84,9.03-5.83,19.13-3.8,28.73.92,4.35,2.62,8.49,4.34,12.59,2.86,6.83,5.86,13.76,10.76,19.31,2.83,3.2,6.22,5.85,9.62,8.44,4.14,3.15,8.35,6.24,12.87,8.82,14.25,8.11,33.52,10.69,49.53,7.09"/>
      <path class="cls-3" d="m186.88,287.77c.68,6.48.91,13.01.67,19.52-.06,1.59-.14,3.18-.57,4.71-.59,2.11-1.81,3.98-3.02,5.81-3.93,5.95-7.97,11.82-12.12,17.62-.97,1.35-1.98,2.74-3.42,3.59-1.26.74-2.73,1.01-4.18,1.23-5.16.79-10.43,1.19-15.38,2.86s-9.69,4.83-11.81,9.6c6.19-3.47,13.71-3.17,20.8-2.77,6.9.39,13.8.78,20.71,1.17,2.49.14,5.42.55,6.57,2.77,2.12-.92,3.15-3.55,2.65-5.8s-2.27-4.07-4.32-5.12c-1.22-.62-2.64-1.08-3.39-2.23-1.3-1.99.19-4.57,1.66-6.44,8.04-10.26,26.82-38.24,36.3-47.19"/>
      <path class="cls-3" d="m278.18,234.77c-.38,2.98-.44,6.66,2.13,8.21,1.14.69,2.55.74,3.88.69,6.92-.28,13.51-2.98,19.68-6.13,4.5-2.29,9.14-5.14,11.2-9.75"/>
      <path class="cls-3" d="m279.23,242.37c-1.79,2.23-4.38,3.64-6.96,4.85-7.21,3.38-14.93,5.66-22.82,6.72-1.63.22-3.31.39-4.9-.05s-3.08-1.59-3.45-3.19"/>
      <path class="cls-3" d="m251.07,254.44c-.96,5.57-4.09,10.45-7.15,15.14-6.26,9.62-12.51,19.23-18.77,28.85-3.2,4.92-6.42,9.87-10.48,14.06-4.05,4.19-8.81,7.78-14.42,9"/>
      <path class="cls-3" d="m214.51,312.35c10.51-3.41,20.32-9.46,28.47-17.54,15.59-15.47,19.51-25.33,29.97-47.8"/>
      <path class="cls-3" d="m200.25,321.4c6.05,1.91,12.63.97,18.84-.34"/>
      <path class="cls-3" d="m200.25,321.4c4.39-5.59,6.94-12.3,9.89-18.76,5.41-11.83,12.38-22.86,19.33-33.85,10.79-17.06,21.58-34.13,32.37-51.19,2.14-3.38,4.31-6.8,7.3-9.46,3.36-2.99,7.57-4.85,11.8-6.39,8.07-2.94,16.81-4.91,25.24-3.26s17.94,8.81,20.23,20.27"/>
      <path class="cls-3" d="m270.12,207.09c3.77-5.87,7.73-11.94,13.63-15.67,2.47-1.56,5.26-2.53,7.92-3.74,3.25-1.48,6.12-3.97,7.35-4.19"/>
      <path class="cls-3" d="m299.02,183.49c8.72-6.47,18.56-12.18,27.68-18.08,2.57-1.66,5.2-3.32,8.13-4.22,2.64-.81,5.42-.98,8.18-1.14,4.72-.28,9.48-.55,14.16.15s9.33,2.44,12.74,5.72"/>
      <path class="cls-3" d="m370.7,166.26c7.11,1.73,14.39,2.74,21.39,4.84s13.87,5.43,18.68,10.94"/>
      <path class="cls-3" d="m365.99,178.34l9.08-.5c2.98-.16,6.04-.35,8.71-1.68,2.45-1.21,4.35-3.28,6.2-5.3"/>
      <path class="cls-3" d="m365.99,178.47c1.36,4.2,6.34,5.91,10.72,6.53,10.58,1.49,21.32.09,31.91-1.31.76-.1,1.57-.23,2.1-.77"/>
      <path class="cls-3" d="m294.26,336.64c20.34-14.66,40.73-43.25,54.61-69.01,13.87-25.76,24.28-53.28,32.6-81.33"/>
      <path class="cls-3" d="m294.26,336.64c2.37,2.69,9.43,7.46,12.29,9.63"/>
      <path class="cls-3" d="m306.54,346.27c9.63-.05,22.67.71,23.26.78,5.73.76,7.1,6.85,6.6,9.48-3.86-3.66-7.1-5.15-13.84-5.11-6.22.03-13.75-.54-19.96-.15"/>
      <path class="cls-3" d="m302.61,351.27c.96,1.45,1.57,1.94,2.06,3.61s.44,3.6-.56,5.03c-1.69-3.65-4.56-7.07-8.46-8.04-1.5-.37-3.07-.37-4.62-.36-1.65,0-3.3.02-4.94.03-1.13,0-2.31.03-3.28.61-1.82,1.09-2.2,4.05-2.24,6.18"/>
      <path class="cls-3" d="m280.57,358.32c-1.35-.13-2.58-.77-3.1-2.02s-.59-2.64-.64-3.99c-.06-1.47-.04-3.13,1.01-4.17.68-.66,1.65-.91,2.59-1.08,2.26-.41,4.97-.53,7.25-.31"/>
      <path class="cls-3" d="m287.68,346.75c-1.81-2.92-.92-2.95-3.37-5.35"/>
      <path class="cls-3" d="m284.31,341.4c-12.83,9.99-28.09,20.65-40.7,31.85"/>
      <path class="cls-3" d="m219.09,321.06c-4.22,5.46-8.62,11.17-12.84,16.63-10.73,13.89-21.86,28.84-24.93,46.12"/>
      <path class="cls-3" d="m181.33,383.81c2.74-.71,5.29-1.13,7.85-2.31,2.57-1.18,4.85-2.75,6.45-5.08"/>
      <path class="cls-3" d="m189.18,381.5c-3.91,13.18-7.38,26.33-10.62,39.69,4.82-1.65,7.51-6.64,9.76-11.21-.19,4.98.15,9.98,1.03,14.88.05.28.12.58.35.74.33.23.78.04,1.12-.17,6.28-3.71,10.22-10.3,13.6-16.76,2.98-5.69,5.74-11.5,8.26-17.4"/>
      <path class="cls-3" d="m200.4,416.17c-1.76,6.59-5.11,14.96-6.81,19.16,5.15-2.29,9.35-6.4,12.4-11.14,3.05-4.74,5.02-10.1,6.52-15.53-.9,10.39-1.8,20.77-2.69,31.16,3.07-2.74,5.7-5.94,8.22-9.2,12.9-16.66,24.3-36.33,25.57-57.37"/>
      <path class="cls-3" d="m181.33,383.81c-5.04,7.38-9.86,14.63-14.97,21.96,6.09-.76,12-2.89,17.16-6.21"/>
      <path class="cls-3" d="m353.74,171.44c2.15-.49,4.38-.64,6.59-.45"/>
      <path class="cls-3" d="m359.78,171.13c-.39.96-1.56,1.32-2.59,1.42-.51.05-1.04.06-1.5-.16s-.81-.75-.68-1.24"/>
      <path class="cls-3" d="m107.72,302.14c-.97-3.38-3.13-6.4-6-8.42-1.51-1.06-3.19-1.85-4.89-2.57-5.78-2.45-11.99-4.2-18.26-3.87,3.91,6.9,10.48,12.24,18.04,14.64,3.63,1.16,7.62,1.64,11.23.42"/>
      <path class="cls-3" d="m108.03,302.27l3.55,3.57c.19.19.39.4.45.67.05.23-.01.48-.08.71-.57,1.93-1.25,3.85-1.49,5.85s.01,4.14,1.18,5.79c1.16,1.64,3.38,2.63,5.28,1.94"/>
      <path class="cls-3" d="m117.42,320.67c.94-2.18,2.46-4.28,4.68-5.11,1.12-.42,2.5-.44,3.42.32.32.26.56.6.78.94.25.39.47.8.58,1.25.3,1.26-.4,2.61-1.46,3.36s-2.39.99-3.69,1.03c-.74.02-1.5-.03-2.2-.28s-1.34-.72-1.68-1.39"/>
      <path class="cls-3" d="m117.59,320.69c-2.04.7-3.2,3.14-2.72,5.24s2.4,3.71,4.51,4.14c.46.09.94.13,1.39,0,.44-.13.82-.42,1.16-.74,1.78-1.69,2.58-4.34,2.03-6.73"/>
      <path class="cls-3" d="m123.07,314.96c-.87-3.48.95-7.25,3.79-9.44,2.84-2.19,6.52-3.03,10.1-3.19"/>
      <path class="cls-3" d="m137.29,302.47c-.31,3.43-.68,6.96-2.26,10.02-1.58,3.06-4.67,5.59-8.11,5.5"/>
      <path class="cls-3" d="m122.39,329.95c.72,1.18,2.25,1.56,3.63,1.55,3.38-.01,6.5-1.66,9.67-2.85s6.91-1.86,9.78-.07"/>
      <path class="cls-3" d="m117.91,337.07c1.09,1.74,3.06,2.76,5.06,3.22s4.07.43,6.12.51c2.69.1,5.39.4,8.06.1s5.39-1.28,7.16-3.3c.12-.14.24-.31.2-.49-.03-.11-.11-.19-.19-.27-2.58-2.41-6.44-2.72-9.97-2.73-1.49,0-3,.03-4.46.36-2.05.46-3.92,1.49-5.9,2.17-1.98.69-4.25,1-6.13.06"/>
      <path class="cls-3" d="m144.85,337.22c-.5-1.88-.15-3.88.47-5.72s1.49-3.59,2.08-5.44c.71-2.25.99-4.61,1.25-6.95.57-5.21,1-10.74-1.24-15.48,2.17,3.99,4.74,7.78,6.37,12.02,1.63,4.24,2.23,9.12.37,13.26-1.76,3.92-5.51,6.66-9.51,8.25"/>
      <path class="cls-3" d="m147.14,303.66c3.02.63,6.39-.3,8.42-2.62s2.41-6.03.64-8.55c-.68-.96-1.61-1.72-2.57-2.38-.98-.68-2.01-1.28-3.09-1.81"/>
      <path class="cls-3" d="m150.12,288.17c-.72,1.69-3.51,2.89-5.29,3.37-.47.13.4.28,0,0-.27-.19.12.31,0,0-.55-1.43-1.03-3.88-.23-5.19s2.14-2.25,3.62-2.67c.15-.04.32-.08.48-.05.25.06.42.29.56.51.67,1.11,1.01,2.43.95,3.72"/>
      <path class="cls-3" d="m144.84,291.54c-.65.96-.49,1.96-.75,3.09-.14.61-.23,1.24-.13,1.85.1.57.35,1.1.61,1.62.87,1.7,1.91,3.31,3.08,4.81"/>
      <path class="cls-3" d="m147.24,303.14c-.3.91-1.02,1.63-1.84,2.11s-1.76.73-2.69.94c-1.19.26-2.56.4-3.51-.36-.86-.69-1.09-1.9-1.13-3"/>
      <path class="cls-3" d="m137.91,302.24c-.57-2.14-.02-4.43.91-6.43.26-.56.56-1.12.95-1.6.96-1.21,3.52-2.65,5.07-2.66"/>
      <path class="cls-3" d="m150.29,285.82c2.56-1.73,5.93-1.97,8.92-1.18s5.65,2.51,8.05,4.46c.12.1.24.2.29.34.05.17,0,.35-.07.51-1.51,3.81-5.95,6.2-9.96,5.37"/>
      <path class="cls-3" d="m136.34,310.96c1.89,1.71,3.91,3.28,6.03,4.69.19.13.4.26.63.27.18,0,.36-.06.53-.13,1.77-.71,3.59-1.33,5.43-1.85"/>
      <path class="cls-3" d="m142.73,316.25l-4.73,6.38c-.14.19-.28.38-.35.6-.08.25-.07.52-.06.79.05,1.26.1,2.52.16,3.77"/>
      <path class="cls-3" d="m137.05,322.95c-1.44-2.28-2.97-4.5-4.58-6.65"/>
      <path class="cls-3" d="m112.51,306.49c3.21,1.39,5.98,3.79,7.82,6.77.47.77.89,1.59,1.05,2.48"/>
      <path class="cls-3" d="m112.34,306.73c2.21-4.23,2.28-9.23,2.08-13.99-.09-2.09-.22-4.18-.74-6.21-.84-3.23-2.63-6.11-4.4-8.94-3.81,7.19-4.43,16-1.67,23.65"/>
      <path class="cls-3" d="m143.34,288.89c-2.21-1.42-3.14-4.13-4.65-6.29-1.44-2.06-3.46-3.63-5.41-5.22-4.29-3.48-8.81-14.21-18.61-17.15"/>
      <path class="cls-3" d="m141.21,286.99c-3.29-.3-6.88.46-9.11,2.9-.9.98-1.53,2.18-2.11,3.38-.04.08-.08.16-.07.25.01.1.08.18.16.25,2.05,2.04,5.12,2.99,7.97,2.47"/>
      <path class="cls-3" d="m140.09,284.71c-.89-1.8-.65-4.03.31-5.8.96-1.77,2.56-3.12,4.31-4.12.05-.03.11-.06.17-.06.09,0,.17.08.23.15,1.08,1.19,2.08,2.47,2.76,3.92s1.04,3.09.79,4.68"/>
      <path class="cls-3" d="m148.5,283.56c.58-2.2,1.81-5.02,3.22-6.55.88-.96,2.58-.63,2.89.63.03.14.04.27,0,.38-1.59,4.1-2.1,5.44-3.93,7.05"/>
      <path class="cls-3" d="m141.97,276.81c.84-4.33.01-9.95-2.27-13.72-2.62,2.26-4.19,5.69-4.18,9.15s.62,7.86,3.26,10.1"/>
      <path class="cls-3" d="m126.83,173.73c4.15,6.33,4.63,14.88,1.24,21.64-1.84,3.66-4.68,6.73-6.73,10.28-2.05,3.55-2.84,8.98-1.11,12.69.21.46.07-.5,0,0"/>
      <path class="cls-3" d="m126.4,173.38c-.97,3.19-2.3,6.26-3.95,9.15-1.18,2.05-2.52,4.01-3.41,6.2-2.17,5.32-1.33,11.76,2.14,16.33"/>
      <path class="cls-3" d="m107.21,247.69c-1.62-3.21-5.33-4.67-8.73-5.86-3.02-1.06-6.1-2.13-9.3-2.25-3.5-.12-6.93.9-10.28,1.92,8.16,6.54,17.75,8.39,27.93,6"/>
      <path class="cls-3" d="m94.39,272.03c-.68-1.98.1-4.27,1.62-5.7.73-.69,1.67-1.22,2.67-1.24s2.06.55,2.38,1.5c.18.54.12,1.12-.02,1.67-.16.61-.43,1.21-.85,1.68-.68.76-1.68,1.12-2.64,1.46-1.04.36-2.15.73-3.22.47"/>
      <path class="cls-3" d="m94.27,271.94c-1.92.95-3.95,2.02-4.94,3.92-.65,1.25-.76,2.73-.63,4.14s.47,2.79.66,4.19c.01.1.03.21.09.29.1.13.3.14.46.14,1.24-.01,2.5-.1,3.64-.56,1.54-.62,2.77-1.9,3.54-3.37.78-1.47,1.13-3.14,1.26-4.8.11-1.4.05-2.88-.63-4.11"/>
      <path class="cls-3" d="m95.46,266.16c-.48-1.24-.84-2.53-1.09-3.83-.17-.91-.29-1.87-.01-2.76.18-.6.53-1.12.87-1.64,1.81-2.76,3.55-5.63,4.31-8.84"/>
      <path class="cls-3" d="m98.53,252.72c1.23,1.33,2.34,2.82,2.87,4.55.43,1.41.46,2.9.48,4.37.01.7.02,1.41-.15,2.1s-.54,1.34-1.13,1.71"/>
      <path class="cls-3" d="m100.7,265.22c2.46-2.76,6.1-4.42,9.79-4.47,1.23-.02,2.49.13,3.64-.28"/>
      <path class="cls-3" d="m114.45,260.22c-.39,1.45-.78,2.91-1.48,4.24s-1.74,2.52-3.12,3.13c-.85.37-1.79.5-2.72.61-1.89.21-3.99.25-5.46-.94"/>
      <path class="cls-3" d="m108.28,269.02c.98,2.39-.66,5.12-.18,7.66.05.24.11.5.01.73-.12.29-.45.41-.75.5-2.94.87-6.07,1.12-9.11.73"/>
      <path class="cls-3" d="m95.37,266.26c-1.58-3.15-9.82-1-14.02,1.82"/>
      <path class="cls-3" d="m81.59,268.19c.4,1.98,2.22,3.32,3.99,4.27,1.48.79,3.12,1.48,4.79,1.28"/>
      <path class="cls-3" d="m84.28,265.77c-.88-1.27-.92-2.98-.43-4.45s1.43-2.73,2.42-3.92,2.06-2.32,2.85-3.64c1.87,2.02,3.47,4.28,4.76,6.71"/>
      <path class="cls-3" d="m109.25,277c6.42-2.61,13.26-4.98,20.12-4.02"/>
      <path class="cls-3" d="m109.87,277.15c7.56,7.84,19.24,11.47,29.91,9.28"/>
      <path class="cls-3" d="m93.17,239.64c-.74-2.52-1.5-5.12-1.19-7.73.38-3.25,2.36-6.07,3.5-9.14,1.92-5.18,1.34-11.22-1.53-15.94-2.57,4.76-7.03,8.49-8.62,13.66-1.08,3.52-.7,7.35.4,10.87.68,2.18,1.66,4.31,3.18,6,1.53,1.7,3.66,2.93,5.94,3.02"/>
      <path class="cls-3" d="m94.18,239.86c1.9-4.6,4.55-8.89,7.82-12.65,1.95-2.23,4.16-4.36,5.19-7.14,1.34-3.63.4-7.67-.67-11.39-4.11,3.33-8.47,7.07-9.54,12.25-.58,2.84-.08,5.81-.55,8.67-.59,3.6-2.68,6.84-3.07,10.47"/>
      <path class="cls-3" d="m105.91,208.85c1.87-3.37,4.1-6.53,6.65-9.42.12-.14.25-.28.31-.46.23-.67-.56-1.21-1.23-1.44-1.63-.55-3.36-.79-5.08-.72-1.57.07-3.21.44-4.33,1.55-1.11,1.11-1.43,3.1-.35,4.23.38.39.88.65,1.4.81,1.81.58,3.82.13,5.48-.8s3.01-2.3,4.32-3.68"/>
      <path class="cls-3" d="m111.78,196.97c-2.03-1.51-3.09-4.1-3.09-6.63s.96-4.99,2.37-7.09c.65.55,1.1,1.28,1.53,2.01,1.05,1.81,2,3.75,2.21,5.84s-1.4,4.36-3.04,5.67"/>
      <path class="cls-3" d="m119.31,209.9c-3.58-1.39-5.82-5.32-5.78-9.17,0-.69.08-1.39.36-2.03.61-1.4,2.09-2.18,3.5-2.76"/>
      <path class="cls-3" d="m120.23,218.34c-2.34-1.66-5.53-1.92-8.28-1.11-.61.18-1.2.42-1.79.66-.71.29-1.42.58-2.14.86"/>
      <path class="cls-3" d="m106.98,209.11c1.21,1.25,3.09,1.69,4.82,1.48s3.34-.97,4.86-1.82"/>
      <path class="cls-3" d="m315.38,108.77c-1.32.78-2.72,1.59-4.25,1.6-1.74.01-3.35-1.04-4.39-2.43-1.04-1.39-1.57-3.09-1.95-4.79-.27-1.18-.47-2.38-.48-3.59,0-.14,0-.29.08-.41.11-.17.34-.2.54-.22,2.59-.24,5.25.58,7.26,2.22s3.35,5.06,3.64,7.64"/>
      <path class="cls-3" d="m313.95,102.74c-.03-3.59,1.27-7.19,3.6-9.92.13-.15.3-.32.5-.29.21.03.33.26.41.46.46,1.14.92,2.28,1.37,3.42.28.7.57,1.41.76,2.15,1.02,3.89-.92,8.36-4.47,10.27"/>
      <path class="cls-3" d="m320.48,103.43c2.33-1.95,5.98-1.57,8.89-.7.38.11.78.26,1.04.56.26.3.34.72.34,1.11,0,1.53-1.07,2.88-2.34,3.73-2.47,1.65-5.62,1.83-8.58,1.79-1.18-.02-2.48-.11-3.32-.94"/>
      <path class="cls-3" d="m317.54,110.29c3.24.22,7.84,2.94,7.12,7.02-.04.25-.07.54-.27.69-.17.12-.4.11-.61.1-.52-.03-1.05-.07-1.53-.25-.52-.19-.97-.53-1.38-.91-1.85-1.67-3.04-4.04-3.29-6.52"/>
      <path class="cls-3" d="m334.38,111.09c-.21,1.58-1.26,2.98-2.62,3.81-1.36.83-3,1.12-4.59,1.02-.38-.02-.77-.08-1.09-.29-.89-.6-.62-1.98-.08-2.9.83-1.4,2.11-2.58,3.67-3.03s3.4-.06,4.47,1.16c-.42-.72-.74-1.5-.94-2.31-.18-.74-.26-1.53-.04-2.26.22-.73.78-1.39,1.52-1.57,1.36-.32,2.61,1.18,2.53,2.57s-1.07,2.56-2.12,3.48c1.36-.83,3.05-1.2,4.58-.78s2.86,1.71,3.1,3.29-.79,3.31-2.34,3.66c-.96.22-1.98-.08-2.82-.6-1.74-1.09-2.79-3.2-2.6-5.25"/>
      <path class="cls-3" d="m350.13,128.66c2.08-.15,4.2-.46,5.62-1.97,1.67-1.79,1.61-4.84,3.55-6.33.81-.62,1.84-.86,2.79-1.24,4.23-1.68,6.74-6.12,7.54-10.63.04-.25-.22-.45-.45-.34-2.29,1.03-4.57,2.1-6.57,3.6-2.16,1.62-3.99,3.8-4.67,6.41-.29,1.1-.36,2.31.11,3.35"/>
      <path class="cls-3" d="m363.4,110.84c.06-3.07-.85-6.16-2.56-8.73-.06-.1-.21-.1-.28,0-2.28,3.38-3.78,7.29-4.36,11.33-.29,2-.23,4.34,1.3,5.69"/>
      <path class="cls-3" d="m357.2,108.55c-1.18-2.47-7.92-5.28-10.61-5.84-.14-.03-.29-.05-.41.01-.19.1-.23.36-.21.58.1,1.48,5.51,15.74,11.99,18.88"/>
      <path class="cls-3" d="m355.5,127.01c4.98.44,9.59,3.32,14.58,3.4.03,0,.04.03.03.05-1.42,2.05-3.94,3.17-6.45,3.35s-5.06-.48-7.44-1.4c-2.07-.8-4.48-2.23-6.09-3.75-.07-.06-.04-.08,0,0,1.08,2.16,1.68,5.16,1.23,7.52-.06.33-.2.71-.53.78-.16.03-.32-.02-.46-.09-.56-.26-1.06-.65-1.44-1.15-1.63-2.11-4.21-4.3,1.2-7.07"/>
      <path class="cls-3" d="m339.03,117.05c.33,1.72.98,3.38,1.91,4.86.36.58.78,1.15,1.34,1.54.64.45,1.41.64,2.18.77,1.98.33,3.99.29,6,.24.11,0,.22,0,.32-.06.15-.09.21-.29.22-.47.2-3.89-6.85-7.67-7.97-8.73"/>
      <path class="cls-3" d="m339.28,145.85c-1.57,3.41-4.58,5.93-7.72,8-3.32,2.19-11.02,2.36-15.31,1.65-.34-.06-.6-.45-.41-.74,1.77-2.61,6.98-7.36,10.88-11.86,2.82-3.25,7.38-4.5,11.63-5.2,4.25-.7,8.11-1.11,12.39-.67-.53,3.04-2.54,6.06-5.38,7.26-2.84,1.2-6.01,1.37-9.09,1.37s-9.83.29-12.85.89"/>
      <path class="cls-3" d="m336.14,150.38c3.64.92,7.39,1.4,11.14,1.42.49,0,.99,0,1.43-.22.29-.14.54-.36.77-.6,3.5-3.52,6.29-10.31,1.39-13.25"/>
      <path class="cls-3" d="m339.46,145.67c1.2.22,2.35.71,3.33,1.43,1.92,1.4,3.29,3.67,5.56,4.36"/>
      <path class="cls-3" d="m323.41,146.17c-.31-5.98,1.12-11.94.88-17.92-.07-1.74-.29-3.52-1.02-5.1-.9-1.95-2.6-3.75-2.35-5.89"/>
      <path class="cls-3" d="m323.91,138.22c2.76-6.41,4.37-14.02,4.6-21.74"/>
      <path class="cls-3" d="m328.81,122.69c.89,1.02,2.18,1.66,3.5,2.1,1.11.37,2.32.6,3.48.38,1.19-.23,2.22-.91,3.2-1.58.52-.35,1.03-.7,1.55-1.05"/>
      <path class="cls-3" d="m335.96,125.35c-3.72,15.33-6.66,4.55-12.54,20.23"/>
      <path class="cls-3" d="m381.5,315.34l-1.81.71c-.88.34-1.79.7-2.47,1.37s-1.06,1.71-.68,2.58c.31.69,1.01,1.11,1.69,1.42,1.62.75,3.6,1.16,5.12.23.51-.31.93-.76,1.32-1.22.35-.42.7-.88.77-1.43.05-.4-.06-.81-.16-1.2-.21-.76-.46-1.59-1.11-2.04-.28-.19-.6-.29-.92-.4-.5-.16-1-.32-1.5-.47"/>
      <path class="cls-3" d="m348.84,315.73l-2.04,1.3c-1,.64-2.02,1.3-2.79,2.53s-1.2,3.17-.77,4.76c.34,1.27,1.14,2.04,1.91,2.62,1.83,1.38,4.07,2.14,5.78.42.58-.58,1.05-1.4,1.49-2.25.4-.77.79-1.63.87-2.64.06-.75-.06-1.49-.18-2.22-.23-1.41-.52-2.94-1.25-3.77-.31-.35-.68-.54-1.04-.73-.57-.29-1.13-.58-1.7-.88"/>
      <path class="cls-3" d="m372.22,271.77c-1.22-1.08-2.42-2.31-2.92-3.86-.2-.62-.25-1.39.2-1.86.4-.41,1.03-.46,1.6-.46.63,0,1.27,0,1.87.17,1.86.51,3,2.36,3.69,4.15.19.5.36,1.06.17,1.56-.18.46-.63.76-1.09.96-1.15.5-2.16.01-3.33-.41"/>
      <path class="cls-3" d="m371.83,249.97c1.38-3.95,4.66-7.14,8.44-8.72s8-1.77,12.02-1.08c3.67.63,7.32,1.98,11,1.47-4.8,3.17-10.01,5.86-15.62,6.88-2.46.44-4.96.56-7.45.68-2.86.13-5.54.63-8.39.77"/>
      <path class="cls-3" d="m382.85,240.25c-.89-2.69-.48-5.68.45-8.36.93-2.68,2.35-5.14,3.54-7.7,1.27-2.74,2.28-5.6,3.01-8.54,2.31,2.22,3.72,5.41,3.83,8.67.11,3.26-1.1,6.54-3.26,8.91-2.1,2.3-4.98,3.71-7.17,5.93"/>
      <path class="cls-3" d="m371.83,249.97c-.95,3.25-3.66,6.13-4.13,9.48-.3,2.11.48,4.34,2.02,5.81"/>
      <path class="cls-3" d="m371.83,249.97c.61,2,1.91,3.82,3.09,5.55,1.18,1.73,2.3,3.61,2.48,5.7s-.86,4.42-2.85,5.09"/>
      <path class="cls-3" d="m377.29,260.33c.93-2.03,2.59-3.71,4.6-4.66.1-.05.2-.09.3-.06.11.03.18.13.24.22.63.96,1.26,1.92,1.89,2.88.48.73.96,1.47,1.28,2.28.36.93.51,1.94.41,2.93"/>
      <path class="cls-3" d="m375.01,266.28c1.64-1.75,3.94-2.88,6.32-3.01s4.84.77,6.5,2.48c.84.86,1.22,2.34,1.96,3.29"/>
      <path class="cls-3" d="m389.8,269.04c-3.68,2.4-8.72,3.45-12.88,2.05"/>
      <path class="cls-3" d="m381.12,272.43c.74,1.48,1.34,3.07,1.39,4.73.03,1-.14,2-.31,2.99-.36,2.06-.85,4.46-1.21,6.52-.03.18.16-.09,0,0-.11.06.13.02,0,0-2.84-.37-5.94-2-7.31-4.52-1.37-2.52-2.49-7.57-1.26-10.15"/>
      <path class="cls-3" d="m367.36,260.52c-2.34-.57-4.8-.62-7.16-.14-.24.05-.5.11-.66.31-.15.18-.16.44-.17.67-.05,1.26-.08,2.61.58,3.68.57.92,1.56,1.49,2.58,1.84,2.25.78,5.04.51,6.62-1.28"/>
      <path class="cls-3" d="m362.42,267.51c-.22,2.88-.04,5.79.52,8.63.09.45.23.95.63,1.17.2.11.43.12.66.14,2.62.18,5.23.36,7.85.53"/>
      <path class="cls-3" d="m363.33,277.63c.46,3.78.7,7.57.93,11.37.11,1.78.22,3.57-.06,5.33-.36,2.24-1.34,4.33-2.38,6.35-1.31,2.54-3.12,4.23-4.64,6.64"/>
      <path class="cls-3" d="m357.19,307.32c.29-5.79-.97-10.67.18-16.35.49-2.4,1.39-4.68,2.29-6.96,1-2.51,1.99-5.03,2.99-7.54"/>
      <path class="cls-3" d="m357.12,290.94c-3.02-.53-5.99,1.41-7.91,3.8-4.42,5.48-4.88,13.81-1.09,19.74.08.12.17.25.31.28.14.04.29-.04.42-.12,3.51-2.11,6.74-3.55,8.34-7.32"/>
      <path class="cls-3" d="m343.78,326.57c-3.76-1.16-7.42-2.9-10.26-5.63-2.84-2.73-4.79-6.54-4.69-10.47,0-.24.02-.5.16-.71.19-.29.56-.4.9-.48,6.48-1.52,13.71.85,18.03,5.91"/>
      <path class="cls-3" d="m362.33,301.75c1.97.77,4.14.85,6.25.72,7.36-.47,14.53-3.57,19.91-8.61,1.89-1.77,3.74-3.96,5.39-5.96"/>
      <path class="cls-3" d="m362.41,301.55c2.24-3.21,5.43-5.65,8.87-7.51s7.15-3.17,10.83-4.46c3.37-1.19,6.83-2.39,10.41-2.29.54.01.93.28,1.36.61"/>
      <path class="cls-3" d="m380.99,286.67c-.05.87.62,1.82,1.08,2.56"/>
      <path class="cls-3" d="m368.67,302.6c.16,1.68.6,3.34.42,5.02-.21,1.96-4.84,4.43-6.46,5.55s-10.83,2.47-12.74,1.96"/>
      <path class="cls-3" d="m368.5,309.24c-.21.91-.29,4.25.19,5.05s1.19,1.45,1.93,2.02c1.55,1.18,3.47,2.11,5.39,1.77"/>
      <path class="cls-3" d="m381.9,314.83c-1.16-2.02-1.41-4.47-2.62-6.45-1.02-1.66-2.66-2.88-4.43-3.7s-3.68-1.3-5.57-1.77"/>
      <path class="cls-3" d="m379.87,309.3c1.46-2.39,3.62-4.36,6.14-5.58,1.07,4.09.12,8.66-2.51,11.98"/>
      <path class="cls-3" d="m383.96,315.39c4.29-3.72,10.49-5.12,15.97-3.61-.23,3.01-2.43,5.68-5.2,6.88-2.77,1.2-6.01,1.04-8.85,0"/>
      <path class="cls-3" d="m385.68,318.46c1.05,1.38,1.61,3.08,1.87,4.79s.2,3.46.13,5.19c0,.09-.01.19-.07.25-.1.12-.29.08-.44.03-.61-.21-1.23-.43-1.83-.66-.99-.37-2.02-.82-2.62-1.69-.27-.4-.44-.86-.55-1.33-.19-.76-.25-1.54-.2-2.31"/>
      <path class="cls-1" d="m351.33,316.48c4.12,1.03,6.07,5.32,8.41,8.43,2.61,3.47,6.18,5.83,9.8,8.12l-.2-1.57c-2.78,2.73-6.88,2.93-10.55,2.6-1.87-.17-3.76-.43-5.55-1.02s-3.22-1.52-4.51-2.78c-1.43-1.4-2.58-3.05-3.69-4.71-.71-1.06-2.45-.06-1.73,1.01,2.22,3.31,4.67,6.52,8.48,8.07,2,.81,4.16,1.14,6.29,1.36,2.26.24,4.55.31,6.79-.13s4.28-1.41,5.89-2.99c.47-.46.33-1.23-.2-1.57-3.67-2.32-7.21-4.69-9.73-8.3-2.37-3.38-4.65-7.37-8.96-8.45-1.25-.31-1.78,1.62-.53,1.93h0Z"/>
      <path class="cls-1" d="m344.15,325.75c-2.4-.13-4.87-.09-7.17.67-1.01.33-2,.79-2.88,1.39-.76.53-1.89,1.32-2.21,2.24-.37,1.07.69,2.06,1.47,2.64s1.65.91,2.56,1.06c2.17.36,4.29-.33,6.17-1.4,2.11-1.21,4.54-3,3.95-5.77-.27-1.26-2.2-.73-1.93.53.24,1.12-.79,2.04-1.62,2.62-1.01.7-2.09,1.36-3.26,1.75-1.01.34-2.08.51-3.13.27-.49-.11-.95-.28-1.38-.55-.33-.2-.9-.6-.96-1.01v.53c.08-.21.64-.63.85-.81.33-.28.7-.53,1.07-.75.72-.42,1.49-.74,2.3-.97,2.01-.56,4.1-.56,6.17-.45,1.29.07,1.28-1.93,0-2h0Z"/>
      <path class="cls-1" d="m367.62,330.3c1.75-1.67,3.01-3.75,4.31-5.77,1.23-1.89,2.56-3.79,4.52-4.98,1.1-.66.1-2.39-1.01-1.73-4.3,2.59-5.72,7.72-9.24,11.06-.94.89.48,2.3,1.41,1.41h0Z"/>
      <path class="cls-1" d="m111.19,240.91c-1.73,1.02-3.03,2.71-3.71,4.59-.36,1-.58,2.2-.13,3.2.42.94,1.35,1.57,2.3,1.89,1.9.64,4.03-.07,5.39-1.47.71-.73,1.22-1.61,1.6-2.54.4-1,.67-2.13.41-3.2-.6-2.48-3.5-3.03-5.63-2.56-.53.12-.84.73-.7,1.23.15.54.7.81,1.23.7.57-.12,1.27-.15,1.83,0,.53.14,1.01.38,1.26.93.28.61.02,1.43-.2,2.05-.19.55-.54,1.2-.9,1.64-.22.27-.48.53-.75.75-.15.12-.61.4-.76.46-.26.11-.64.21-.86.24-.06,0-.31.02-.44.02-.08,0-.15,0-.23,0,0,0-.33-.04-.18-.02-.6-.1-1.16-.33-1.5-.8-.31-.42-.07-1.21.1-1.74.47-1.46,1.55-2.84,2.87-3.62,1.11-.65.1-2.38-1.01-1.73h0Z"/>
      <path class="cls-1" d="m116.48,242.87c.97-1.04,1.91-2.13,2.42-3.48.47-1.24.35-2.53-.19-3.72-.44-.96-1.14-1.77-1.76-2.62-.59-.8-1.16-1.64-1.11-2.67.03-.67-.66-1.11-1.27-.96-3.69.89-7.19,3.04-8.9,6.54-1.58,3.23-1.79,8.1,1.56,10.32,1.08.71,2.08-1.02,1.01-1.73-1.21-.8-1.64-2.38-1.68-3.75-.05-1.53.37-3.03,1.11-4.36,1.56-2.77,4.41-4.36,7.42-5.09l-1.27-.96c-.1,2.18,1.51,3.67,2.62,5.35.51.78.9,1.62.69,2.56-.27,1.24-1.24,2.25-2.08,3.15s.53,2.36,1.41,1.41h0Z"/>
      <path class="cls-1" d="m117.86,240.42c.69-.07,1.48-.2,2.11.14.6.32,1.08.91,1.62,1.32,1.18.91,2.51,1.58,3.93,2.03l-.44-1.67c-.88,1.09-1.42,2.33-1.93,3.62-.46,1.16-.9,2.4-1.77,3.33-1.85,1.99-5.14,1.78-6.68-.47-.73-1.05-2.46-.05-1.73,1.01,1.95,2.83,5.88,3.77,8.78,1.76,1.31-.91,2.13-2.23,2.75-3.68s1.03-2.96,1.99-4.16c.47-.59.33-1.43-.44-1.67-1.42-.45-2.73-1.18-3.85-2.18-.59-.53-1.16-1.03-1.92-1.28s-1.62-.19-2.42-.11c-.54.06-1,.42-1,1,0,.5.46,1.06,1,1h0Z"/>
      <path class="cls-1" d="m112.94,249.64c-.29.83-.41,1.74-.33,2.62.09.94.41,1.76.8,2.61.7,1.52.82,3.13.27,4.72-.17.51.2,1.09.7,1.23.55.15,1.05-.19,1.23-.7.57-1.67.58-3.57-.04-5.23-.3-.8-.75-1.54-.93-2.39-.16-.79-.05-1.58.21-2.33.18-.51-.2-1.09-.7-1.23-.55-.15-1.05.19-1.23.7h0Z"/>
      <path class="cls-1" d="m106.77,247.4c-1.69,2.23-1.5,5.53.26,7.66.96,1.17,2.37,1.8,3.68,2.48,1.19.61,2.52,1.38,2.87,2.77.31,1.25,2.24.72,1.93-.53-.35-1.39-1.33-2.43-2.49-3.21s-2.54-1.25-3.69-2.08c-1.95-1.41-2.25-4.19-.82-6.07.33-.43.07-1.12-.36-1.37-.51-.3-1.04-.07-1.37.36h0Z"/>
      <path class="cls-1" d="m115.54,231.09c3.4-3.32,4.79-7.94,5.65-12.49.24-1.26-1.69-1.8-1.93-.53-.8,4.2-1.99,8.52-5.14,11.6-.92.9.49,2.32,1.41,1.41h0Z"/>
      <path class="cls-3" d="m337.75,98.47c-.95-.84-1.87-1.78-2.26-2.99-.16-.48-.19-1.07.16-1.44.31-.32.79-.35,1.24-.36.49,0,.98,0,1.45.13,1.44.39,2.32,1.82,2.86,3.21.15.39.28.82.13,1.21-.14.36-.49.59-.84.74-.89.38-1.67,0-2.58-.32"/>
      <path class="cls-3" d="m337.44,81.61c-.74,2.51-2.83,4.75-3.2,7.34-.23,1.63.37,3.36,1.56,4.49"/>
      <path class="cls-3" d="m337.44,81.61c.47,1.55,1.48,2.96,2.39,4.29s1.78,2.79,1.92,4.41c.14,1.62-.67,3.42-2.2,3.94"/>
      <path class="cls-3" d="m341.67,89.63c.72-1.57,2-2.87,3.56-3.61.07-.03.16-.07.23-.05.08.02.14.1.18.17.49.74.97,1.48,1.46,2.23.37.56.74,1.13.99,1.76.28.72.39,1.5.32,2.26"/>
      <path class="cls-3" d="m339.91,94.23c1.27-1.35,3.05-2.23,4.89-2.33s3.74.59,5.03,1.92c.65.67.94,1.81,1.52,2.54"/>
      <path class="cls-3" d="m351.35,96.36c-2.84,1.86-6.75,2.67-9.96,1.58"/>
      <path class="cls-3" d="m344.63,98.99c.57,1.15,1.04,2.38,1.08,3.66.02.78-.11,1.55-.24,2.31-.28,1.59-.66,3.45-.94,5.04-.02.14.12-.07,0,0-.09.05.1.01,0,0-2.2-.28-4.6-1.55-5.66-3.49s-1.93-5.85-.97-7.85"/>
      <path class="cls-3" d="m333.99,89.77c-1.81-.44-3.71-.48-5.54-.11-.19.04-.39.09-.51.24-.11.14-.13.34-.13.52-.04.97-.06,2.02.45,2.85.44.71,1.21,1.15,1.99,1.43,1.74.6,3.9.39,5.12-.99"/>
      <path class="cls-1" d="m334.62,93.67c-3.07,2-4.41,5.52-4.62,9.06-.03.54.48,1,1,1,.57,0,.97-.46,1-1,.17-2.79,1.19-5.74,3.63-7.33.45-.3.64-.89.36-1.37-.26-.45-.91-.66-1.37-.36h0Z"/>
      <path class="cls-1" d="m336.89,98.18c-.09.14-.19.28-.29.42-.01.02-.16.21-.1.14.04-.06-.11.14-.11.14-.2.25-.42.49-.64.73s-.46.45-.7.67c-.13.11-.26.22-.39.33.1-.08-.05.03-.08.06-.07.05-.14.1-.21.15-.53.37-1.09.7-1.67.98-.08.04-.15.07-.23.11-.04.02-.21.09-.09.04-.16.06-.32.12-.48.18-.32.11-.65.21-.98.29-.52.13-.84.72-.7,1.23s.71.83,1.23.7c2.94-.75,5.52-2.62,7.18-5.15.3-.45.09-1.11-.36-1.37-.49-.29-1.07-.09-1.37.36h0Z"/>
    </g>
    <circle class="cls-3" cx="243.68" cy="243.68" r="229.89"/>
  </g>
</svg>